HIERARCHY
ROOT Hips
{
 OFFSET 0.000000 0.000000 0.000000
 CHANNELS 6 Xposition Yposition Zposition Yrotation Xrotation Zrotation
 JOINT Chest
 {
  OFFSET 0.000000 9.588913 -0.003946
  CHANNELS 3 Yrotation Xrotation Zrotation
  JOINT Chest2
  {
   OFFSET 0.000000 9.541882 0.008053
   CHANNELS 3 Yrotation Xrotation Zrotation
   JOINT Chest3
   {
    OFFSET 0.000000 9.501360 0.000000
    CHANNELS 3 Yrotation Xrotation Zrotation
    JOINT Chest4
    {
     OFFSET 0.000000 9.491660 0.000000
     CHANNELS 3 Yrotation Xrotation Zrotation
     JOINT Neck
     {
      OFFSET 0.000000 14.331917 0.000000
      CHANNELS 3 Yrotation Xrotation Zrotation
      JOINT Head
      {
       OFFSET 0.000000 8.884799 0.017034
       CHANNELS 3 Yrotation Xrotation Zrotation
       End Site
       {
        OFFSET 0.000000 16.896195 0.008993
       }
      }
     }
     JOINT RightCollar
     {
      OFFSET -2.923010 9.499495 0.000000
      CHANNELS 3 Yrotation Xrotation Zrotation
      JOINT RightShoulder
      {
       OFFSET -13.795216 0.000000 0.000000
       CHANNELS 3 Yrotation Xrotation Zrotation
       JOINT RightElbow
       {
        OFFSET -30.272209 0.000000 0.000000
        CHANNELS 3 Yrotation Xrotation Zrotation
        JOINT RightWrist
        {
         OFFSET -24.478199 0.000000 0.000000
         CHANNELS 3 Yrotation Xrotation Zrotation
         End Site
         {
          OFFSET -18.090752 0.000000 0.000000
         }
        }
       }
      }
     }
     JOINT LeftCollar
     {
      OFFSET 2.923010 9.499495 0.000000
      CHANNELS 3 Yrotation Xrotation Zrotation
      JOINT LeftShoulder
      {
       OFFSET 13.795216 0.000000 0.000000
       CHANNELS 3 Yrotation Xrotation Zrotation
       JOINT LeftElbow
       {
        OFFSET 30.272209 0.000000 0.000000
        CHANNELS 3 Yrotation Xrotation Zrotation
        JOINT LeftWrist
        {
         OFFSET 24.478199 0.000000 0.000000
         CHANNELS 3 Yrotation Xrotation Zrotation
         End Site
         {
          OFFSET 18.090752 0.000000 0.000000
         }
        }
       }
      }
     }
    }
   }
  }
 }
 JOINT RightHip
 {
  OFFSET -7.826875 0.019532 0.001973
  CHANNELS 3 Yrotation Xrotation Zrotation
  JOINT RightKnee
  {
   OFFSET 0.000000 -40.546152 -0.001885
   CHANNELS 3 Yrotation Xrotation Zrotation
   JOINT RightAnkle
   {
    OFFSET 0.000000 -39.417092 -0.003189
    CHANNELS 3 Yrotation Xrotation Zrotation
    JOINT RightToe
    {
     OFFSET 0.000000 -7.579396 17.243563
     CHANNELS 3 Yrotation Xrotation Zrotation
     End Site
     {
      OFFSET 0.000000 -1.500329 6.694466
     }
    }
   }
  }
 }
 JOINT LeftHip
 {
  OFFSET 7.826875 0.019532 0.001973
  CHANNELS 3 Yrotation Xrotation Zrotation
  JOINT LeftKnee
  {
   OFFSET 0.000000 -40.546152 -0.001885
   CHANNELS 3 Yrotation Xrotation Zrotation
   JOINT LeftAnkle
   {
    OFFSET 0.000000 -39.417092 -0.003189
    CHANNELS 3 Yrotation Xrotation Zrotation
    JOINT LeftToe
    {
     OFFSET 0.000000 -7.579396 17.243563
     CHANNELS 3 Yrotation Xrotation Zrotation
     End Site
     {
      OFFSET 0.000000 -1.500329 6.694466
     }
    }
   }
  }
 }
}
MOTION
Frames: 10
Frame Time: 0.008333
-3.181847 89.181354 -11.991211 156.241862 -8.009044 0.532570 4.235320 2.993477 0.153866 2.412707 1.711727 0.059174 3.016496 2.139151 0.085241 2.412707 1.711727 0.059174 -0.975156 28.234703 -0.813019 -0.888853 5.472356 -0.673586 -2.273119 2.375026 -1.739918 -11.896132 3.919473 91.429407 8.479520 -2.127776 2.870961 1.146014 -5.411283 -0.646905 -5.694392 1.759632 -0.229818 15.129418 0.541523 -88.495388 0.013095 -13.150992 -2.487805 -2.450624 -1.053749 1.575257 -9.509052 10.176394 -3.022890 3.093232 2.224765 0.669992 3.999254 -4.812161 -0.101209 -0.014063 0.009731 -0.009226 5.245362 9.875893 1.126828 -5.412905 1.280205 0.018189 -5.743479 -4.162604 0.115117 0.013062 0.011308 -0.009685
-3.177145 89.180866 -11.986405 156.236473 -8.003197 0.530245 4.231258 2.987362 0.153598 2.410528 1.708298 0.059023 3.013770 2.134866 0.085020 2.410528 1.708298 0.059023 -0.971213 28.238628 -0.824543 -0.881920 5.477487 -0.687184 -2.264411 2.380579 -1.737425 -11.883648 3.890966 91.405733 8.466740 -2.128360 2.866840 1.140384 -5.403880 -0.642476 -5.680112 1.773625 -0.229328 15.130828 0.522694 -88.486266 0.005711 -13.162966 -2.492150 -2.458974 -1.066593 1.577238 -9.483851 10.171211 -3.015985 3.079055 2.221822 0.676415 4.000301 -4.812038 -0.104734 -0.014748 0.012460 -0.010533 5.221697 9.866749 1.122490 -5.394826 1.288463 0.024230 -5.719157 -4.168148 0.112880 0.014398 0.012324 -0.008835
-3.172115 89.180432 -11.981022 156.233874 -7.995352 0.527887 4.227036 2.981133 0.152787 2.408222 1.704755 0.058121 3.010881 2.130444 0.083858 2.408222 1.704755 0.058121 -0.965032 28.242580 -0.832866 -0.873247 5.482615 -0.697766 -2.258267 2.386694 -1.728233 -11.871387 3.856232 91.381746 8.447760 -2.130971 2.859435 1.135335 -5.399814 -0.639260 -5.666703 1.785642 -0.227134 15.138329 0.507789 -88.478208 -0.005128 -13.175310 -2.499471 -2.467639 -1.082054 1.581461 -9.461876 10.164122 -3.008743 3.067524 2.218341 0.681428 4.002308 -4.811025 -0.107314 -0.014605 0.014429 -0.011681 5.198831 9.855038 1.119725 -5.379073 1.296118 0.030548 -5.700603 -4.172842 0.109503 0.015701 0.013260 -0.008389
-3.166469 89.180138 -11.975506 156.233925 -7.988498 0.524130 4.222809 2.975367 0.150851 2.405747 1.701439 0.056844 3.007779 2.126308 0.082228 2.405747 1.701439 0.056844 -0.956913 28.247489 -0.837463 -0.863289 5.488946 -0.704691 -2.252318 2.392961 -1.713781 -11.863421 3.819033 91.360110 8.425705 -2.133618 2.850374 1.131837 -5.400233 -0.640005 -5.651598 1.796668 -0.222147 15.147721 0.495460 -88.469300 -0.017681 -13.186920 -2.508937 -2.475679 -1.098619 1.585597 -9.442269 10.158174 -2.998528 3.057975 2.215519 0.683324 4.001769 -4.809693 -0.109907 -0.014830 0.015349 -0.011729 5.176330 9.843020 1.118492 -5.364320 1.305558 0.040271 -5.689054 -4.178524 0.102978 0.016891 0.014203 -0.007778
-3.160124 89.180014 -11.970115 156.234856 -7.983879 0.518527 4.219393 2.969887 0.148207 2.403718 1.698210 0.055864 3.005237 2.122279 0.080972 2.403718 1.698210 0.055864 -0.947718 28.253838 -0.838769 -0.852901 5.497119 -0.708241 -2.245289 2.398924 -1.696293 -11.860560 3.782554 91.341092 8.400805 -2.139067 2.839465 1.134313 -5.401870 -0.645751 -5.638800 1.807166 -0.215510 15.164428 0.485907 -88.460367 -0.031236 -13.192372 -2.518458 -2.482744 -1.112638 1.588539 -9.420695 10.154302 -2.984529 3.049683 2.214531 0.683612 3.994163 -4.808311 -0.113962 -0.015627 0.015032 -0.010672 5.150299 9.832444 1.119790 -5.346460 1.316437 0.051040 -5.684310 -4.185546 0.094827 0.016837 0.015316 -0.007323
-3.153583 89.180005 -11.964821 156.236598 -7.979603 0.513050 4.216309 2.964175 0.145544 2.401929 1.694863 0.055163 3.002995 2.118101 0.080067 2.401929 1.694863 0.055163 -0.937519 28.261340 -0.837906 -0.841902 5.506768 -0.709637 -2.239008 2.403783 -1.678352 -11.858861 3.747921 91.324541 8.373613 -2.148505 2.825134 1.143165 -5.402025 -0.653463 -5.630217 1.816153 -0.208080 15.189508 0.479483 -88.455528 -0.043611 -13.190925 -2.524318 -2.488647 -1.125729 1.590021 -9.397265 10.150265 -2.970294 3.041856 2.214950 0.684235 3.982865 -4.807036 -0.119073 -0.016467 0.014120 -0.009255 5.117905 9.822012 1.121626 -5.324333 1.327486 0.060421 -5.683868 -4.192427 0.086505 0.015724 0.016097 -0.006917
-3.147280 89.180056 -11.959623 156.238373 -7.974068 0.509746 4.213971 2.957770 0.142715 2.400516 1.691112 0.054268 3.001222 2.113418 0.078917 2.400516 1.691112 0.054268 -0.927340 28.270357 -0.835400 -0.831307 5.518377 -0.709225 -2.236329 2.409782 -1.660209 -11.858777 3.714687 91.310083 8.346853 -2.158158 2.808428 1.153166 -5.403004 -0.661656 -5.620594 1.823334 -0.201172 15.207961 0.476169 -88.454049 -0.052211 -13.191353 -2.525661 -2.491668 -1.140414 1.592178 -9.373820 10.144566 -2.958291 3.031722 2.215522 0.685572 3.971749 -4.805866 -0.124793 -0.017435 0.013413 -0.007975 5.083042 9.809739 1.121100 -5.300879 1.339950 0.068092 -5.681708 -4.198733 0.078547 0.014536 0.015877 -0.005940
-3.140785 89.180172 -11.954621 156.240225 -7.968386 0.506351 4.212598 2.950624 0.140230 2.399551 1.686844 0.053630 3.000011 2.108088 0.078086 2.399551 1.686844 0.053630 -0.917713 28.281936 -0.831296 -0.821692 5.533312 -0.706941 -2.234828 2.419591 -1.641949 -11.865290 3.682047 91.297367 8.322416 -2.166371 2.791018 1.159862 -5.408479 -0.666959 -5.608777 1.830087 -0.197860 15.216250 0.474647 -88.450770 -0.059348 -13.196044 -2.523742 -2.491021 -1.151800 1.596386 -9.350494 10.139844 -2.945390 3.020306 2.214393 0.687625 3.955496 -4.803618 -0.130612 -0.018549 0.012461 -0.007812 5.049506 9.797210 1.121023 -5.278117 1.353001 0.073966 -5.676643 -4.204871 0.072683 0.013718 0.015357 -0.005720
-3.133840 89.180358 -11.949869 156.243651 -7.963214 0.501436 4.210879 2.942807 0.138673 2.398254 1.682277 0.053150 2.998384 2.102384 0.077451 2.398254 1.682277 0.053150 -0.906024 28.296837 -0.825948 -0.810103 5.552543 -0.703768 -2.230304 2.431690 -1.625780 -11.879414 3.650688 91.290569 8.300393 -2.174218 2.772031 1.163568 -5.418026 -0.666681 -5.595876 1.838093 -0.197260 15.221315 0.471529 -88.445940 -0.064794 -13.203144 -2.518481 -2.488319 -1.155096 1.601751 -9.328868 10.137143 -2.931466 3.008626 2.211188 0.689391 3.941079 -4.799783 -0.135064 -0.018863 0.010734 -0.008585 5.015502 9.785805 1.122302 -5.254781 1.365174 0.078818 -5.668626 -4.211227 0.069432 0.013545 0.015373 -0.006863
-3.126900 89.180588 -11.945362 156.251106 -7.957412 0.497168 4.207922 2.935116 0.136948 2.396306 1.677819 0.051839 2.995941 2.096821 0.075774 2.396306 1.677819 0.051839 -0.891105 28.314145 -0.818554 -0.795431 5.574870 -0.699084 -2.225689 2.441393 -1.612606 -11.896809 3.621699 91.293041 8.279654 -2.184050 2.754320 1.165719 -5.426781 -0.666685 -5.584022 1.846473 -0.195057 15.225533 0.465345 -88.442588 -0.065612 -13.210594 -2.511524 -2.486038 -1.154687 1.606801 -9.313433 10.133923 -2.920278 2.995857 2.207807 0.690755 3.936031 -4.795549 -0.138673 -0.018229 0.008536 -0.009026 4.977227 9.773698 1.120824 -5.230818 1.377635 0.083621 -5.654191 -4.217243 0.067548 0.014211 0.015209 -0.007964
